<svg id="Grupo_11" data-name="Grupo 11" xmlns="http://www.w3.org/2000/svg" xmlns:xlink="http://www.w3.org/1999/xlink" width="124.255" height="76.694" viewBox="0 0 124.255 76.694">
  <defs>
    <clipPath id="clip-path">
      <rect id="Retângulo_23" data-name="Retângulo 23" width="124.255" height="76.694" fill="none"/>
    </clipPath>
  </defs>
  <g id="Grupo_10" data-name="Grupo 10" clip-path="url(#clip-path)">
    <path id="Caminho_44" data-name="Caminho 44" d="M339.276,77.984a3.415,3.415,0,0,1,.193,1.417H369.4V77.984Z" transform="translate(-245.281 -56.379)" fill="#202916"/>
    <path id="Caminho_45" data-name="Caminho 45" d="M32.392,78.32a2.64,2.64,0,0,1,.335-.335H0V79.4H29.51a2.847,2.847,0,0,1,1.536-.5,2.717,2.717,0,0,1,1.347-.582" transform="translate(0 -56.379)" fill="#202916"/>
    <path id="Caminho_46" data-name="Caminho 46" d="M336.273,91.8a2.618,2.618,0,0,1-.956.606,2.616,2.616,0,0,1-.97.811h31.494V91.8Z" transform="translate(-241.717 -66.368)" fill="#3e5728"/>
    <path id="Caminho_47" data-name="Caminho 47" d="M27.9,91.8H0v1.417H27.711A3.415,3.415,0,0,1,27.9,91.8" transform="translate(0 -66.368)" fill="#3e5728"/>
    <rect id="Retângulo_21" data-name="Retângulo 21" width="124.077" height="1.417" transform="translate(0.046 52.545)" fill="#202916"/>
    <path id="Caminho_48" data-name="Caminho 48" d="M158.169,95.907s-.9.335-.613-3.428,1.771-9.287,3.014-10.542,2.561-2.8,3.473-2.9,6.124-1.614,8.358-4.291c-3.074,2.343-4.553,2.009-5.794,2.509s-3.64,1.172-4.962,2.26,1.077-2.289,1.654-3.152,6.122-4.3,6.122-4.3l.418-1.421s-6.126,4.183-6.787,4.935,3.637-6.05,3.637-6.05-5.374,6.636-5.622,7.473-.081-5.523,1.4-6.275-3.637-5.523-3.637-5.523.33,2.928.822,6.274,1,6.157.336,7.554-3.088,5.749-3.088,5.749l-4.528-2.176s-.163-1-.74-1,2.555-3.584,2.555-3.584,1.2-2.336,2.713-2.942c2.633-1.054,1.275-.838,2.26-1.923,0,0-4.555,2.842-4.139,2.508.288-.235-.037-4.672-.642-6.029a9.869,9.869,0,0,0-1.919-2.252s2.881,4.688,1.735,8.114c-.6,1.8-1.075.911-1.075.911s.278-2.851-1.561-2.629a4.207,4.207,0,0,1,.625,3.8c-.415,1.5-.625.844-.625.844a25.622,25.622,0,0,0-4.4-3.179c-1.322-.5-2.678-1.469-4.3-1.469-4.72,0,4.047,1.49,6.37,3.727,3.475,3.346,1.737,1.924,1.737,1.924l-.412,1.135s-2.318-1.721-3.643-2.473a25.837,25.837,0,0,0-5.708-2.258c-1.158-.169-6.117-1.511-6.945-1.177s-.652.588-2.527.332,3.822,1.513,6.884,1.43,6.892,1.3,8.383,2.617,1.407,2.069,2.232,2.235,1.405,2.175,2.4,2.594a14.913,14.913,0,0,1,3.389,2.257c.332.42.829.92.829.92s-1.742,6.711-1.162,8.876a18.492,18.492,0,0,0,3.028.242Z" transform="translate(-94.971 -47.139)" fill="#5c4012"/>
    <path id="Caminho_49" data-name="Caminho 49" d="M122.548,80.93a2.235,2.235,0,0,1-1.122.3c-.116.009.311-1.1-.532-.923s-1.228-.25-1.515-.25-1.407-.108-1.407-.391.6-.606.177-.926a.662.662,0,0,0-.949,0,1.885,1.885,0,0,1-1.266.25c-.247-.106-.636-.76-1.124-.451a2.71,2.71,0,0,1-1.794.238,5.377,5.377,0,0,0-1.163-.32s-.1-.676-.6-.746a2.712,2.712,0,0,1-1.127-.641,2.024,2.024,0,0,0-1.3,0,2,2,0,0,0-1.021.319,1.425,1.425,0,0,0-.7,1.138c.036.142-1.3.038-1.585.038s-.631.455-.667.53-.385-.04-.811,0-.666.572-.7.679-.7.462-.7.64.279.675.211.817-.67.6-.6.854.6.533.385.89.528.852.528.993-.353.534.1.534,1.3-.248,1.476-.213.811-.178.843-.6.845-.711,1.27-.251.7-.106.984-.641.743-.746,1.195-.284.283.889.423,1a.7.7,0,0,0,.915-.6c.071-.64.985-.621,1.124-.63s.5.063.53.311.669.036.7.319a5.584,5.584,0,0,0,0,1.1c.1.285.528,1.094.738.851a10.111,10.111,0,0,0,.458-1.491c.139-.286.457-.89.88-.89s.562-.5.562-.711,1.691-.32,1.758-.106-.387.3-.246.614.915.774.915.489.494-.623.7-.489.949.222,1.022,0,.628-.419.666,0-.038.985.173,1.128.689-.177,1.105-.177,1.361.319,1.361-.144V82.015c0-.428.173-1.35-.281-1.085" transform="translate(-73.919 -55.638)" fill="#3e5728"/>
    <path id="Caminho_50" data-name="Caminho 50" d="M172.431,15.557c.032-.156.481-.766.347-.987s-.719-.348-.611-.747-.734-.677-.777-.816.2-.61-.241-.483-1.189.6-1.365.609-.735.395-.653.814-.621.918-1.151.587c-.229-.14-.382-.106-.488.025,0-.319.1-.856-.366-1.01a2.948,2.948,0,0,1-1.046-.784c-.01-.153-.01-.3-.023-.437a1.773,1.773,0,0,0-.624-.85c-.081-.157-.144-.269-.144-.269s.445-.516.177-.944a2.756,2.756,0,0,1-.238-1.282c-.041-.381-.694-.945-.838-1.01a2.012,2.012,0,0,0-.9-.58,1.384,1.384,0,0,0-1.315.187c-.087.118-.865-.983-1.044-1.2s-.755-.2-.838-.178-.216-.323-.515-.626a1.034,1.034,0,0,0-.972-.107c-.1.044-.8-.248-.933-.132s-.329.653-.484.69a.486.486,0,0,1-.1,0A.291.291,0,0,0,157.275,6a2.732,2.732,0,0,1-.237-1.282c-.042-.382-.694-.945-.838-1.008a2.047,2.047,0,0,0-.9-.582,1.387,1.387,0,0,0-1.315.188c-.086.12-.866-.984-1.044-1.2s-.754-.2-.833-.177-.223-.324-.523-.626a1.014,1.014,0,0,0-.962-.108c-.106.041-.807-.246-.941-.132s-.332.653-.486.691-.886-.129-1.028.086-.018.806-.423.871a.285.285,0,0,0-.152.084.506.506,0,0,0-.283.018,2.7,2.7,0,0,1-1.8-.172,5.315,5.315,0,0,0-1.061-.573s.044-.684-.422-.862a2.7,2.7,0,0,1-.953-.877A2.017,2.017,0,0,0,141.8.043a1.989,1.989,0,0,0-1.067.082,1.414,1.414,0,0,0-.936.951c0,.147-1.278-.258-1.551-.319s-.718.3-.769.366-.367-.127-.788-.184-.78.406-.833.5-.789.294-.828.467.122.722.023.846-.785.438-.768.7c.006.165.193.385.255.6-.012.012-.019.026-.03.039-.194-.274-.3-.422-.513-.722-.247-.347-.634-1.2-.853-.713-.011.025-.024.044-.034.066-.063-.079-.129-.155-.191-.225a2.021,2.021,0,0,0-1.27-.293,1.945,1.945,0,0,0-1.063.082,1.406,1.406,0,0,0-.936.949c0,.15-1.278-.258-1.551-.32s-.719.3-.767.367-.37-.125-.79-.182-.779.405-.835.505-.79.289-.828.465.124.721.024.843c-.073.091-.469.287-.66.491-.249-.381-.6-1.1-.809-.644a2.287,2.287,0,0,1-.737.908c-.083.072-.381-1.083-.966-.443a1.758,1.758,0,0,1-.363.319,3.25,3.25,0,0,1-.761-.236c-.359-.212-1.016-.972-1.249-.575-.2.354-.3.514-.464.8a2.84,2.84,0,0,1-.716-.224c-.362-.212-1.019-.972-1.253-.575s-.317.554-.53.922-.826,1.077-.3,1.08A2.052,2.052,0,0,1,117.12,7a.616.616,0,0,1-.171.083c-.261.059-.95-.244-1.177.3a2.717,2.717,0,0,1-1.317,1.252.842.842,0,0,0-.26.059c.154-.28.3-.552.225-.714-.113-.232-.68-.2-1.039-.408S112.363,6.6,112.135,7s-.32.552-.535.922c-.18.311-.644.862-.463,1.031h-.01c-.378.012-.985.626-1.056.766a2.005,2.005,0,0,0-.647.862,1.4,1.4,0,0,0,.089,1.338c.107.1-1.037.8-1.268.963s-.251.744-.238.824-.335.2-.654.48a1.043,1.043,0,0,0-.182.965c.032.107-.3.791-.2.935s.621.383.645.54-.191.886.006,1.046.795.082.828.5c.017.237.321.327.59.385.027.225.1.36.315.228.042-.026.081-.045.118-.067.055.168.042.563.374.322a4.725,4.725,0,0,0,.6-.584l.024,0c.11-.014-.29,1.112.55.908s1.236.216,1.519.208,1.409.067,1.415.352-.579.622-.148.93a.657.657,0,0,0,.947-.026,1.9,1.9,0,0,1,1.261-.285c.251.1.655.744,1.139.421a2.694,2.694,0,0,1,1.786-.286,5.313,5.313,0,0,0,1.17.286s.122.673.616.731a2.649,2.649,0,0,1,1.141.608,1.683,1.683,0,0,0,1.016.045c-.042.278-.13.721.022.843.2.16.79.081.826.493s.921.382,1,.5.021.641.393.371a6.635,6.635,0,0,0,.754-.739c-.023.207-.022.4.071.476.2.16.8.081.828.494s.919.383,1,.5.022.641.393.369a3.674,3.674,0,0,0,.4-.357c.1.075.18.148.191.209.025.156-.191.884.007,1.046s.794.08.826.493.924.383,1,.5.025.641.4.37.911-.969,1.075-1.044.554-.621.336-.989.278-1.075.887-.948.51-.5.429-1.1.171-1.041.811-.935.738.557.915.559a.716.716,0,0,0,.393-1.031c-.31-.56.444-1.085.552-1.177s.435-.238.608-.059.565-.365.755-.153.389.726.638.9,1.061.578,1.092.254a10.105,10.105,0,0,0-.49-1.482c-.048-.312-.142-.992.2-1.238a.3.3,0,0,1,.029-.03,1.03,1.03,0,0,1,.387.252c.161.217.167.978.748.963a2.716,2.716,0,0,1,1.665.71,5.345,5.345,0,0,0,.841.869s-.245.639.142.949a2.758,2.758,0,0,1,.653,1.128,2.03,2.03,0,0,0,1.124.665,1.977,1.977,0,0,0,1.038.245,1.515,1.515,0,0,0,1.13-.536.329.329,0,0,0,.01.273.644.644,0,0,0,.751.487c.086.309.135.487.234.831.113.409.191,1.348.56.966a2.035,2.035,0,0,1,.87-.549.441.441,0,0,0,.188.121c.051.3.137.872.7.574a1.72,1.72,0,0,1,.653-.206,1.208,1.208,0,0,1,.493.368,5.394,5.394,0,0,0,.843.869s-.245.639.144.951a2.753,2.753,0,0,1,.65,1.127,2.047,2.047,0,0,0,1.126.666,1.994,1.994,0,0,0,1.038.242,1.392,1.392,0,0,0,1.177-.623c.039-.141,1.141.634,1.382.779s.779-.07.845-.116.315.231.7.413.864-.153.947-.227.839-.04.927-.193.093-.728.228-.813.877-.181.939-.431-.247-.765.114-.965-.032-1.007.038-1.13.572-.281.177-.514a2.534,2.534,0,0,0-.365-.171,2.074,2.074,0,0,0,.428-.223c.1-.1.362-.062.75-.435.036.044.078.057.123.018.216-.183.788-.019.826.229s.443.878.657.79.726.221.428.517-.771.608-.741.862.575.417.841.736.638,1.261.989.964.48-.413.807-.688,1.133-.733.64-.915a2.228,2.228,0,0,1-.953-.677c-.081-.08,1.036-.465.359-1s-.6-1.11-.786-1.331-.826-1.156-.608-1.341.841.073.814-.459a.8.8,0,0,0-.164-.5c.025-.009.052-.017.076-.029.4-.152.492-.733.5-.845a3.248,3.248,0,0,1,.376-.516c.147.235.357.455.486.4.213-.089.723.222.43.516s-.768.608-.741.864.575.415.843.736.632,1.26.98.963.49-.411.813-.685,1.134-.736.64-.918a2.2,2.2,0,0,1-.953-.674c-.078-.08,1.04-.466.361-1a1.785,1.785,0,0,1-.631-.94c.355-.262.79-.582.4-.729a2.238,2.238,0,0,1-.953-.675c-.059-.059.488-.269.567-.579a.389.389,0,0,0,.038-.211.713.713,0,0,0-.21-.552c.34-.085.7-.165.838-.2.269-.078.483-.612.5-.693s.382-.071.775-.221.494-.734.5-.847.552-.638.5-.809-.454-.574-.425-.73m-27.655,3.008a.042.042,0,0,0,0-.021.557.557,0,0,0,.319.258,0,0,0,0,0,0,0c-.052.086-.1.157-.132.225-.124-.107-.26-.288-.19-.464m.511-.935c-.14.245-.818.216-.613.71a.174.174,0,0,1,.009.022c-.154-.132-.43-.253-.352-.431a8.055,8.055,0,0,0,.539-.912c.266.227.494.479.418.611M118.095,9.673c-.052-.072.132-.289.383-.514a5.177,5.177,0,0,1,.65.508.408.408,0,0,0,.093.147c.11.094-1.037.795-1.266.962a.37.37,0,0,0-.113.145.556.556,0,0,1,.2-.337c.344-.25.171-.737.05-.91m10.437-1.49c.277.13.59-.252.9-.616.393-.457.884-.562,1.23-.008s.081.929.192,1.065a.7.7,0,0,0,1.023-.385c.211-.605,1.1-.383,1.238-.361l.02.005a6.514,6.514,0,0,1-.469.855c-.2.24-.657.749-1.067.644s-.664.344-.715.55c-.02.064-.189.078-.411.061.01-.367-.032-.8-.246-.731a2.341,2.341,0,0,0-.646.564c-.242-.071-.425-.154-.429-.227-.015-.223.445-.2.385-.535s-.7-.974-.772-.7a.4.4,0,0,1-.191.232,1.828,1.828,0,0,0-.04-.416m19.982-1.257c.066.335.719.96.779.682a.58.58,0,0,1,.367-.332c-.01.018-.017.035-.025.053-.226.6-1.106.36-1.246.331s-.462-.18-.433-.43-.639-.2-.6-.485a6.532,6.532,0,0,1,.217-.721c.511.027,1.3.206,1.322.358.017.226-.447.209-.376.544M123.728,14c.193.18.366.331.366.331a1.19,1.19,0,0,0-.043.667.76.76,0,0,1-.3-.47,1.191,1.191,0,0,1-.022-.527m32.423-2.048c.189.182.438.379.638.543a.112.112,0,0,1-.012.023c-.136.4-.991.48-1.287-.073-.014-.028-.032-.049-.044-.071a1.492,1.492,0,0,0,.249-.268,1.381,1.381,0,0,1,.393-.183.61.61,0,0,0,.063.029m-1.771.869c-.4.447-.9.541-1.232-.021-.02-.042-.041-.081-.059-.122l.2.06c.273.069.723-.287.782-.349.04-.053.258.069.567.153-.083.089-.171.183-.254.28m-18.089-4c.412.095.66-.36.706-.567.021-.1.385-.088.771-.033-.2.193-.762.2-.569.658a.661.661,0,0,0,.816.485,1.8,1.8,0,0,1,.539.079c.219.277.549.52.591.329a.18.18,0,0,1,.021-.045.34.34,0,0,1,.069.068,2.02,2.02,0,0,1,.169.456.289.289,0,0,0-.344-.032c-.128-.121-.245-.147-.333.052a2,2,0,0,1-.59.779.777.777,0,0,1-.2.092c-.118-.173-.372-.846-.809-.5-.215-.483,0-.8-.1-.931a.7.7,0,0,0-1.031.36c-.22.588-1.061.371-1.232.335a8.939,8.939,0,0,1,.471-.913c.2-.244.644-.763,1.054-.668m-13.813,4.145a3.234,3.234,0,0,1,.587.312.732.732,0,0,0-.276.23.521.521,0,0,1-.146.141v-.007a3.193,3.193,0,0,0-.166-.676m25.049,2.971a1.436,1.436,0,0,0-.283-.78c.1,0,.2.013.3.023.2.133.381.252.459.3a.686.686,0,0,0,.457.019,7.127,7.127,0,0,0,.982.532s-.059.622.336.844a.544.544,0,0,1-.357-.057c-.367-.214-.736.143-.841.328s-1.62-.585-1.571-.806.485-.065.518-.4m-.072,4.283a2.6,2.6,0,0,1,1.058.285.111.111,0,0,1-.018.012c-.495.307-.975.266-1.155-.308a.828.828,0,0,0,.116.011m6.006-1.5a.584.584,0,0,1-.142.135,1.867,1.867,0,0,0-.408.1,2.045,2.045,0,0,1-.74-.263c-.125-.064-.393-.305-.3-.537v-.011a.919.919,0,0,0,.163-.006,2.007,2.007,0,0,0,1.065-.059,1.64,1.64,0,0,0,.807-.6.73.73,0,0,1,.157.162c.083.157.653.511,1,.263s1.08.2,1,.82a.432.432,0,0,0,.065.34.123.123,0,0,0-.029.069c-.007.233-.495.575-.641.182s-.232-.958-.473-1.038c-.154-.05-.355.1-.581.254a.708.708,0,0,0-.948.187m9.333-1.973a2.873,2.873,0,0,0-.416-.431c0-.027-.007-.055-.012-.082a1.828,1.828,0,0,1,.606.478c-.057.008-.122.024-.178.035M160.919,14.3a.6.6,0,0,1,.317.562,1.771,1.771,0,0,1-.317-.562M151.735,7.67c-.032.231-.108.5-.135.723a.615.615,0,0,1-.763-.353,1.123,1.123,0,0,1-.165-.478c.19.045.362.048.41-.042.117-.2.711-.265.653.151m-17.8,2.041c-.129-.048-.234-.11-.218-.227.027-.242.222-.63.258-.926.118.046.213.1.2.214-.024.244-.215.641-.241.939m6.24,5.612a1.472,1.472,0,0,0,.256-.193c.029-.037.152.017.335.081-.25.115-.494.183-.59.111m6.421-.1a1.317,1.317,0,0,1,.246-.052.746.746,0,0,1-.5.068.48.48,0,0,0,.255-.016m-.284.011a.173.173,0,0,1-.038-.014.173.173,0,0,0,.038.014M128.334,7.97a.052.052,0,0,0,0,.014l-.013,0a1.478,1.478,0,0,0-.45.359.757.757,0,0,0-.047-.734.761.761,0,0,1,.507.36m-12.822,5.773c-.175.08-.444.067-.506-.119a2.29,2.29,0,0,1,.506.119m30.1,5.085a2.338,2.338,0,0,1,.813.227c-.022.025-.044.051-.066.079a.557.557,0,0,1-.159.149c-.175-.132-.387-.327-.587-.455m8.548,5.921c.055-.126-.119-.226-.271-.333a.714.714,0,0,0,.207-.252c.025-.093.511.209.908.468a4.449,4.449,0,0,1-.833.337.3.3,0,0,1-.01-.221m-10.9-19.034c.134.021.465.171.442.421-.005.088.07.137.171.176a8.472,8.472,0,0,1-.729.734.1.1,0,0,1-.024.015c-.2-.065-.336-.135-.34-.2-.019-.223.448-.2.387-.532a1.42,1.42,0,0,0-.484-.668,2.446,2.446,0,0,1,.577.056m-.913.016a.64.64,0,0,1-.239.183.568.568,0,0,1,.239-.183m-1.545-.337a1.281,1.281,0,0,1,.113.222c-.145-.023-.26-.015-.3.057a.433.433,0,0,1-.351.149.638.638,0,0,0-.295-.183.355.355,0,0,1,0-.132c.026-.143.063-.3.1-.458a.616.616,0,0,1,.74.345M114.748,17.9c-.078-.211.381-.314.227-.62s-.934-.748-.923-.464-.478.635-.693.508-.957-.2-1.019.029-.623.436-.669.02.006-.972-.2-1.118a.747.747,0,0,1,.667-.2c.611.127.508-.5.43-1.1a.866.866,0,0,1,.244-.836,2.93,2.93,0,0,1,.735.064c.112.017-.577.992.286,1.029s1.136.547,1.408.616,1.339.452,1.266.728-.727.439-.395.853a.814.814,0,0,0,.389.3.243.243,0,0,0,0,.035c0,.214-1.684.366-1.757.156m28.778-.978c-.26.173-.837.532-1.2.32a.454.454,0,0,0-.415-.033.277.277,0,0,1,.171-.1c.25-.015.9-.378.828-.6s.275-.712.544-.394c.13.153.262.351.391.514a2.034,2.034,0,0,1-.315.295m3.457,7.691.018-.031c0-.012.014-.014.03-.015-.015.015-.034.03-.048.047M157.4,26.885a3.6,3.6,0,0,1,.452-.165,1.145,1.145,0,0,1-.452.165m1.669-.187c.22-.014.4-.031.4-.031s.226.5.634.554a.814.814,0,0,1-1.031-.523" transform="translate(-77.319 0)" fill="#3e5728"/>
    <rect id="Retângulo_22" data-name="Retângulo 22" width="124.077" height="1.417" transform="translate(0.047 48.717)" fill="#3e5728"/>
    <path id="Caminho_51" data-name="Caminho 51" d="M.453,117.618h9.84l1.134,3.184-.764.287a4.794,4.794,0,0,0-.622-1.229,3.388,3.388,0,0,0-.814-.759,2.772,2.772,0,0,0-.955-.416,9.693,9.693,0,0,0-1.745-.106H3.594v4.435h1.46a2.228,2.228,0,0,0,1.222-.273,1.423,1.423,0,0,0,.57-.681A3.148,3.148,0,0,0,6.968,121v-.2h.851v5.31H6.968v-.46a2.937,2.937,0,0,0-.092-.875,1.422,1.422,0,0,0-.859-.834,3.758,3.758,0,0,0-.963-.086H3.594v3.931a2.753,2.753,0,0,0,.057.75.365.365,0,0,0,.187.2,2.352,2.352,0,0,0,.713.061H6.366a6.228,6.228,0,0,0,2.375-.365,4.14,4.14,0,0,0,1.508-1.117,6.545,6.545,0,0,0,.981-1.66l.79.278-1.356,3.792H.453v-.73H.8a2.129,2.129,0,0,0,.754-.076.743.743,0,0,0,.346-.363,1.969,1.969,0,0,0,.088-.748v-8.339a1.724,1.724,0,0,0-.112-.759.737.737,0,0,0-.391-.3,4.472,4.472,0,0,0-1.032-.06Z" transform="translate(-0.327 -85.032)" fill="#242a1a"/>
    <path id="Caminho_52" data-name="Caminho 52" d="M56.57,117.072H57.2l1.1,4.034-.808.226a14.081,14.081,0,0,0-.988-1.875,4.1,4.1,0,0,0-1.384-1.222,3.764,3.764,0,0,0-1.825-.451,3.924,3.924,0,0,0-2.157.628,4.559,4.559,0,0,0-1.6,1.846,6.008,6.008,0,0,0-.612,2.736,6.093,6.093,0,0,0,.621,2.788,4.629,4.629,0,0,0,1.68,1.885,4.232,4.232,0,0,0,2.282.659,4.9,4.9,0,0,0,2.361-.663,6.482,6.482,0,0,0,2.091-1.856l.694.479a7.111,7.111,0,0,1-1.164,1.353,6.88,6.88,0,0,1-2.056,1.319,6.281,6.281,0,0,1-2.343.426,5.708,5.708,0,0,1-4.58-2.093,6.21,6.21,0,0,1-1.458-4.13,6.373,6.373,0,0,1,.808-3.188,6.065,6.065,0,0,1,2.223-2.267,5.9,5.9,0,0,1,3.06-.843,5.333,5.333,0,0,1,1.627.239,5.894,5.894,0,0,1,1.522.769Z" transform="translate(-34.015 -84.487)" fill="#242a1a"/>
    <path id="Caminho_53" data-name="Caminho 53" d="M100.693,116.862a5.741,5.741,0,0,1,3,.8,6.044,6.044,0,0,1,2.227,2.231,6.338,6.338,0,0,1,.777,3.176,6.207,6.207,0,0,1-1.736,4.554,5.954,5.954,0,0,1-4.429,1.763,5.85,5.85,0,0,1-4.757-2.118,6.259,6.259,0,0,1-1.435-4.13,6.377,6.377,0,0,1,.808-3.2,5.827,5.827,0,0,1,2.293-2.244,6.6,6.6,0,0,1,3.255-.824m0,.939a4.241,4.241,0,0,0-2.33.619,4.33,4.33,0,0,0-1.559,1.827,6.712,6.712,0,0,0-.588,2.975,6.46,6.46,0,0,0,.577,2.868,4.356,4.356,0,0,0,1.551,1.8,3.991,3.991,0,0,0,2.192.626,3.808,3.808,0,0,0,2.14-.613,4.463,4.463,0,0,0,1.537-1.925,6.863,6.863,0,0,0,.611-2.92,7.167,7.167,0,0,0-.611-2.985,3.511,3.511,0,0,0-3.52-2.273" transform="translate(-68.201 -84.486)" fill="#242a1a"/>
    <path id="Caminho_54" data-name="Caminho 54" d="M299.93,117.618h4.416v.729h-.338a2.862,2.862,0,0,0-.59.035.506.506,0,0,0-.267.17.425.425,0,0,0-.091.266,2.047,2.047,0,0,0,.176.684l3.215,8.38,3.247-8.38a2.065,2.065,0,0,0,.176-.675.4.4,0,0,0-.176-.367,1.484,1.484,0,0,0-.71-.112h-.4v-.729h3.761v.729a1.885,1.885,0,0,0-.716.087.98.98,0,0,0-.379.272,3.568,3.568,0,0,0-.4.8l-4.122,10.22H305.5l-4.079-10.22a4.781,4.781,0,0,0-.278-.63,1.131,1.131,0,0,0-.27-.3,1.082,1.082,0,0,0-.363-.171,2.311,2.311,0,0,0-.58-.056Z" transform="translate(-216.836 -85.032)" fill="#242a1a"/>
    <path id="Caminho_55" data-name="Caminho 55" d="M347.316,117.618h4.633v.729h-.358a1.44,1.44,0,0,0-.726.138.819.819,0,0,0-.331.4,3.184,3.184,0,0,0-.1,1v7.8a2.193,2.193,0,0,0,.112.836.729.729,0,0,0,.316.36,1.667,1.667,0,0,0,.732.112h.358v.73h-4.633v-.73h.38a1.615,1.615,0,0,0,.724-.117.673.673,0,0,0,.309-.338,2.522,2.522,0,0,0,.1-.854V119.7a2.789,2.789,0,0,0-.1-.9.633.633,0,0,0-.309-.34,1.692,1.692,0,0,0-.724-.109h-.38Z" transform="translate(-251.093 -85.032)" fill="#242a1a"/>
    <path id="Caminho_56" data-name="Caminho 56" d="M369.52,117.618h4.694v.729h-.435a1.845,1.845,0,0,0-.711.1.61.61,0,0,0-.3.278,1.6,1.6,0,0,0-.1.656v8.442a2.814,2.814,0,0,0,.045.7.363.363,0,0,0,.225.226,2.6,2.6,0,0,0,.7.052h.649a5.258,5.258,0,0,0,1.944-.326,4.014,4.014,0,0,0,1.423-.945,6.621,6.621,0,0,0,1.154-1.854l.773.26-1.354,3.792h-8.71v-.73h.379a1.943,1.943,0,0,0,.749-.094.663.663,0,0,0,.295-.317,1.992,1.992,0,0,0,.1-.759v-8.232a2.519,2.519,0,0,0-.092-.845.621.621,0,0,0-.278-.306,2.073,2.073,0,0,0-.775-.09h-.379Z" transform="translate(-267.146 -85.032)" fill="#242a1a"/>
    <path id="Caminho_57" data-name="Caminho 57" d="M410.45,117.618h1.42l3.765,10.117a2.532,2.532,0,0,0,.562,1.01,1.1,1.1,0,0,0,.76.247h.189v.731H412.84v-.731c.137-.01.272-.018.406-.018a1.133,1.133,0,0,0,.548-.086.489.489,0,0,0,.252-.416,4.087,4.087,0,0,0-.245-.894l-.8-2.343h-4.385l-.944,2.621a2,2,0,0,0-.147.564.5.5,0,0,0,.091.3.553.553,0,0,0,.246.2,1.45,1.45,0,0,0,.5.063c.155,0,.283,0,.382.009v.731H405.13v-.731a1.9,1.9,0,0,0,.724-.1,1,1,0,0,0,.386-.32,4.626,4.626,0,0,0,.435-.932Zm-1.529,6.768h3.738L410.8,119.18Z" transform="translate(-292.89 -85.032)" fill="#242a1a"/>
    <path id="Caminho_58" data-name="Caminho 58" d="M19.088,232.782l-1.29,1.23a4,4,0,0,0-2.962-1.392,3.246,3.246,0,0,0-3.291,3.291,3.462,3.462,0,0,0,.421,1.722,3.022,3.022,0,0,0,1.192,1.18,3.46,3.46,0,0,0,1.712.428,3.523,3.523,0,0,0,1.468-.3A5.256,5.256,0,0,0,17.8,237.85l1.251,1.305a6.868,6.868,0,0,1-2.029,1.453,5.542,5.542,0,0,1-2.181.405,5.019,5.019,0,0,1-3.7-1.433,4.961,4.961,0,0,1-1.44-3.673,5.028,5.028,0,0,1,.655-2.576,4.872,4.872,0,0,1,1.878-1.812,5.293,5.293,0,0,1,2.632-.685,5.586,5.586,0,0,1,4.223,1.947" transform="translate(-7.012 -166.883)" fill="#5c4112"/>
    <path id="Caminho_59" data-name="Caminho 59" d="M81.3,244.446H75.527a1.923,1.923,0,0,0,.669,1.216,2.1,2.1,0,0,0,1.387.451,2.4,2.4,0,0,0,1.733-.7l1.515.711a3.573,3.573,0,0,1-1.357,1.189,4.242,4.242,0,0,1-1.878.386,3.71,3.71,0,0,1-2.747-1.064,3.62,3.62,0,0,1-1.061-2.665,3.744,3.744,0,0,1,1.057-2.724,3.553,3.553,0,0,1,2.652-1.084,3.684,3.684,0,0,1,2.754,1.084,3.918,3.918,0,0,1,1.061,2.863Zm-1.8-1.416a1.807,1.807,0,0,0-.7-.975,2.038,2.038,0,0,0-1.218-.375,2.155,2.155,0,0,0-1.32.422,2.352,2.352,0,0,0-.66.929Z" transform="translate(-53.345 -173.622)" fill="#5c4112"/>
    <path id="Caminho_60" data-name="Caminho 60" d="M130.956,240.342H132.5v.9a1.925,1.925,0,0,1,.665-.81,1.606,1.606,0,0,1,.909-.277,1.685,1.685,0,0,1,.731.185l-.56,1.548a1.236,1.236,0,0,0-.521-.158.823.823,0,0,0-.7.514,4.7,4.7,0,0,0-.287,2.016l.007.349v2.9h-1.786Z" transform="translate(-94.675 -173.622)" fill="#5c4112"/>
    <path id="Caminho_61" data-name="Caminho 61" d="M180.659,244.446h-5.778a1.923,1.923,0,0,0,.669,1.216,2.1,2.1,0,0,0,1.387.451,2.4,2.4,0,0,0,1.733-.7l1.515.711a3.573,3.573,0,0,1-1.357,1.189,4.242,4.242,0,0,1-1.878.386,3.71,3.71,0,0,1-2.747-1.064,3.62,3.62,0,0,1-1.061-2.665,3.744,3.744,0,0,1,1.057-2.724,3.553,3.553,0,0,1,2.652-1.084,3.684,3.684,0,0,1,2.754,1.084,3.918,3.918,0,0,1,1.061,2.863Zm-1.8-1.416a1.808,1.808,0,0,0-.7-.975,2.039,2.039,0,0,0-1.218-.375,2.155,2.155,0,0,0-1.32.422,2.352,2.352,0,0,0-.66.929Z" transform="translate(-125.173 -173.622)" fill="#5c4112"/>
    <path id="Caminho_62" data-name="Caminho 62" d="M227.911,233.121h1.8v7.406a4.364,4.364,0,0,1-.2,1.525,1.568,1.568,0,0,1-.636.774,1.949,1.949,0,0,1-1.048.27,4.394,4.394,0,0,1-1.344-.27v-1.417a1.75,1.75,0,0,0,.744.2.632.632,0,0,0,.514-.2,1.206,1.206,0,0,0,.172-.751Zm.9-2.952a1.114,1.114,0,0,1,.82.342,1.176,1.176,0,0,1,0,1.649,1.088,1.088,0,0,1-.8.342,1.1,1.1,0,0,1-.82-.348,1.161,1.161,0,0,1-.339-.841,1.14,1.14,0,0,1,1.14-1.143" transform="translate(-163.735 -166.402)" fill="#5c4112"/>
    <path id="Caminho_63" data-name="Caminho 63" d="M277.088,244.446h-5.778a1.921,1.921,0,0,0,.668,1.216,2.1,2.1,0,0,0,1.387.451,2.4,2.4,0,0,0,1.733-.7l1.515.711a3.569,3.569,0,0,1-1.357,1.189,4.241,4.241,0,0,1-1.878.386,3.71,3.71,0,0,1-2.747-1.064,3.62,3.62,0,0,1-1.061-2.665,3.743,3.743,0,0,1,1.057-2.724,3.553,3.553,0,0,1,2.652-1.084,3.685,3.685,0,0,1,2.754,1.084A3.918,3.918,0,0,1,277.1,244.1Zm-1.8-1.416a1.806,1.806,0,0,0-.7-.975,2.04,2.04,0,0,0-1.218-.375,2.154,2.154,0,0,0-1.32.422,2.347,2.347,0,0,0-.66.929Z" transform="translate(-194.887 -173.622)" fill="#5c4112"/>
    <path id="Caminho_64" data-name="Caminho 64" d="M327.811,230.169a1.1,1.1,0,0,1,.811.342,1.14,1.14,0,0,1,.339.83,1.125,1.125,0,0,1-.335.82,1.087,1.087,0,0,1-.8.339,1.1,1.1,0,0,1-.818-.346,1.158,1.158,0,0,1-.338-.84,1.145,1.145,0,0,1,1.143-1.146m-.9,2.952h1.8v7.168h-1.8Z" transform="translate(-236.166 -166.402)" fill="#5c4112"/>
    <path id="Caminho_65" data-name="Caminho 65" d="M364.717,240.342h1.541v.9a1.928,1.928,0,0,1,.666-.81,1.606,1.606,0,0,1,.909-.277,1.687,1.687,0,0,1,.731.185L368,241.89a1.237,1.237,0,0,0-.521-.158.824.824,0,0,0-.7.514,4.7,4.7,0,0,0-.286,2.016l.006.349v2.9h-1.785Z" transform="translate(-263.674 -173.622)" fill="#5c4112"/>
    <path id="Caminho_66" data-name="Caminho 66" d="M412.547,240.342h1.8v7.168h-1.8v-.758a3.526,3.526,0,0,1-1.056.721,2.958,2.958,0,0,1-1.148.221,3.189,3.189,0,0,1-2.4-1.077,3.757,3.757,0,0,1-1.013-2.678,3.851,3.851,0,0,1,.98-2.721,3.124,3.124,0,0,1,2.382-1.061,3.031,3.031,0,0,1,1.211.244,3.313,3.313,0,0,1,1.046.731Zm-1.891,1.476a1.819,1.819,0,0,0-1.386.59,2.125,2.125,0,0,0-.551,1.512,2.148,2.148,0,0,0,.561,1.529,1.82,1.82,0,0,0,1.382.6,1.853,1.853,0,0,0,1.405-.59,2.155,2.155,0,0,0,.558-1.545,2.094,2.094,0,0,0-.558-1.515,1.875,1.875,0,0,0-1.412-.58" transform="translate(-294.189 -173.622)" fill="#5c4112"/>
  </g>
</svg>
